<?xml version="1.0" encoding="UTF-8"?>
<svg id="Layer_1" data-name="Layer 1" xmlns="http://www.w3.org/2000/svg" viewBox="0 0 819 219">
  <path d="M26.35,198.99c-2.43,0-3.64-.89-3.64-2.67,0-1.46,1.05-2.43,3.16-2.92l5.59-.97c3.4-.65,5.63-1.54,6.68-2.67,1.05-1.13,1.58-3.4,1.58-6.8V40.1c0-3.4-.53-5.67-1.58-6.8-1.06-1.13-3.28-2.02-6.68-2.67l-5.59-.97c-2.11-.49-3.16-1.46-3.16-2.92,0-1.78,1.21-2.67,3.64-2.67h50.78c9.56,0,17.98,2.07,25.27,6.2,7.29,4.13,12.96,9.84,17.01,17.13,4.05,7.29,6.07,15.71,6.07,25.27s-2.03,17.41-6.07,24.54c-4.05,7.13-9.64,12.68-16.76,16.64-7.13,3.97-15.39,5.95-24.78,5.95h-17.49c-2.27,0-3.4,1.13-3.4,3.4v58.8c0,3.4.65,5.71,1.94,6.92,1.29,1.21,4.21,2.23,8.75,3.04l8.99,1.46c1.78.33,2.67,1.21,2.67,2.67,0,1.94-1.21,2.92-3.64,2.92H26.35ZM56.97,100.35c0,8.91,5.42,13.36,16.28,13.36s18.83-3.72,24.9-11.18c6.07-7.45,9.11-17.65,9.11-30.61s-3.08-23.57-9.23-30.86c-6.16-7.29-14.9-10.93-26.24-10.93-9.88,0-14.82,3.24-14.82,9.72v60.5Z" style="fill: #fff;"/>
  <path d="M173.59,201.18c-7.78,0-14.74-2.59-20.9-7.77-6.16-5.18-11.05-12.51-14.7-21.99s-5.47-20.45-5.47-32.92,1.86-24.05,5.59-33.77c3.72-9.72,8.83-17.33,15.31-22.84,6.48-5.5,13.69-8.26,21.62-8.26,9.56,0,17.29,3.93,23.2,11.78,5.91,7.86,8.87,20.61,8.87,38.27,0,5.34-2.03,8.02-6.07,8.02h-46.16c-3.24,0-4.86,1.86-4.86,5.59,0,17.17,2.51,30.05,7.53,38.63,5.02,8.59,11.42,12.88,19.19,12.88,6.15,0,11.18-2.19,15.06-6.56,3.89-4.37,7.05-11.74,9.48-22.11.49-1.78,1.54-2.67,3.16-2.67,1.94,0,2.67,1.62,2.19,4.86-2.59,14.42-6.72,24.5-12.39,30.25-5.67,5.75-12.55,8.62-20.65,8.62ZM154.15,125.62h24.54c7.78,0,11.66-4.05,11.66-12.15,0-10.53-1.3-18.79-3.89-24.78-2.59-5.99-6.48-8.99-11.66-8.99-6.32,0-11.62,3.64-15.91,10.93-4.29,7.29-7.09,17.66-8.38,31.1-.33,2.59.89,3.89,3.64,3.89Z" style="fill: #fff;"/>
  <path d="M250.61,90.63c6.64-11.34,14.66-17.01,24.05-17.01,5.35,0,9.31,1.58,11.91,4.74,2.59,3.16,3.89,6.68,3.89,10.57,0,3.08-.77,5.59-2.31,7.53-1.54,1.94-3.93,2.92-7.17,2.92-2.59,0-4.5-.61-5.71-1.82s-2.19-2.63-2.92-4.25c-.73-1.62-1.58-3.04-2.55-4.25s-2.59-1.82-4.86-1.82c-2.92,0-5.67,1.74-8.26,5.22-2.59,3.48-4.74,8.14-6.44,13.97-1.7,5.83-2.55,12.47-2.55,19.92v56.37c0,3.4.52,5.83,1.58,7.29,1.05,1.46,3.28,2.35,6.68,2.67l6.56.73c1.78.33,2.67,1.21,2.67,2.67,0,1.94-1.21,2.92-3.64,2.92h-41.06c-2.43,0-3.64-.89-3.64-2.67,0-1.46,1.05-2.43,3.16-2.92l2.92-.49c3.4-.65,5.63-1.66,6.68-3.04,1.05-1.37,1.58-3.77,1.58-7.17v-81.64c0-2.92-.45-4.9-1.34-5.95-.89-1.05-2.47-1.74-4.74-2.06l-5.1-.73c-2.11-.16-3.16-1.05-3.16-2.67,0-1.29,1.29-2.19,3.89-2.67,5.02-.81,8.87-2.1,11.54-3.89,2.67-1.78,5.47-3.97,8.38-6.56,1.46-1.46,2.67-2.19,3.64-2.19,1.46,0,2.19.97,2.19,2.92v13.12c0,1.14.49,1.82,1.46,2.07.97.24,1.86-.36,2.67-1.82Z" style="fill: #fff;"/>
  <path d="M311.1,182.71v-95c0-3.89-1.94-5.83-5.83-5.83h-5.59c-1.94,0-2.92-.81-2.92-2.43s.97-2.51,2.92-2.67c7.61-.81,11.42-4.13,11.42-9.96v-1.46c0-8.42,1.25-16.28,3.77-23.57,2.51-7.29,6.15-13.2,10.93-17.74,4.78-4.53,10.65-6.8,17.62-6.8,6.48,0,11.91,1.86,16.28,5.59,4.37,3.73,6.56,8.18,6.56,13.36,0,3.08-.77,5.39-2.31,6.92-1.54,1.54-3.61,2.31-6.2,2.31-3.24,0-5.55-1.05-6.92-3.16-1.38-2.1-2.47-4.49-3.28-7.17-.81-2.67-1.82-5.06-3.04-7.17-1.21-2.1-3.36-3.16-6.44-3.16-3.24,0-5.79,1.82-7.65,5.47-1.86,3.64-2.79,10.49-2.79,20.53v21.38c0,1.94.97,2.92,2.92,2.92h20.89c2.43,0,3.64,1.14,3.64,3.4s-1.21,3.4-3.64,3.4h-20.89c-1.94,0-2.92.97-2.92,2.92v97.91c0,3.4.52,5.75,1.58,7.05,1.05,1.3,3.28,2.11,6.68,2.43l12.88,1.21c1.78.33,2.67,1.21,2.67,2.67,0,1.94-1.21,2.92-3.64,2.92h-50.54c-2.43,0-3.64-.89-3.64-2.67s1.05-2.75,3.16-2.92l6.07-.49c3.4-.32,5.63-1.25,6.68-2.79,1.05-1.54,1.58-4.01,1.58-7.41Z" style="fill: #fff;"/>
  <path d="M402.46,201.18c-8.26,0-15.67-2.79-22.23-8.38-6.56-5.59-11.78-13.24-15.67-22.96s-5.83-20.57-5.83-32.56,1.94-22.75,5.83-32.31c3.89-9.56,9.15-17.17,15.79-22.84,6.64-5.67,14.01-8.5,22.11-8.5s15.67,2.84,22.23,8.5c6.56,5.67,11.78,13.28,15.67,22.84,3.89,9.56,5.83,20.33,5.83,32.31s-1.91,22.84-5.71,32.56c-3.81,9.72-9.03,17.37-15.67,22.96-6.64,5.59-14.09,8.38-22.35,8.38ZM402.46,195.11c16.84,0,25.27-19.27,25.27-57.83s-8.42-57.58-25.27-57.58-25.27,19.19-25.27,57.58,8.42,57.83,25.27,57.83Z" style="fill: #fff;"/>
  <path d="M489.68,90.63c6.64-11.34,14.66-17.01,24.05-17.01,5.34,0,9.31,1.58,11.91,4.74,2.59,3.16,3.89,6.68,3.89,10.57,0,3.08-.77,5.59-2.31,7.53-1.54,1.94-3.93,2.92-7.17,2.92-2.59,0-4.49-.61-5.71-1.82s-2.19-2.63-2.92-4.25c-.73-1.62-1.58-3.04-2.55-4.25s-2.59-1.82-4.86-1.82c-2.92,0-5.67,1.74-8.26,5.22-2.59,3.48-4.74,8.14-6.44,13.97-1.7,5.83-2.55,12.47-2.55,19.92v56.37c0,3.4.52,5.83,1.58,7.29,1.05,1.46,3.28,2.35,6.68,2.67l6.56.73c1.78.33,2.67,1.21,2.67,2.67,0,1.94-1.21,2.92-3.64,2.92h-41.06c-2.43,0-3.64-.89-3.64-2.67,0-1.46,1.05-2.43,3.16-2.92l2.92-.49c3.4-.65,5.63-1.66,6.68-3.04,1.05-1.37,1.58-3.77,1.58-7.17v-81.64c0-2.92-.45-4.9-1.34-5.95-.89-1.05-2.47-1.74-4.74-2.06l-5.1-.73c-2.11-.16-3.16-1.05-3.16-2.67,0-1.29,1.29-2.19,3.89-2.67,5.02-.81,8.87-2.1,11.54-3.89,2.67-1.78,5.47-3.97,8.38-6.56,1.46-1.46,2.67-2.19,3.64-2.19,1.46,0,2.19.97,2.19,2.92v13.12c0,1.14.49,1.82,1.46,2.07.97.24,1.86-.36,2.67-1.82Z" style="fill: #fff;"/>
  <path d="M536.81,198.99c-2.43,0-3.64-.89-3.64-2.67,0-1.46,1.05-2.43,3.16-2.92l2.92-.49c3.4-.65,5.63-1.66,6.68-3.04,1.05-1.37,1.58-3.77,1.58-7.17v-81.64c0-2.92-.45-4.9-1.34-5.95-.89-1.05-2.47-1.74-4.74-2.06l-5.1-.73c-2.11-.16-3.16-1.05-3.16-2.67,0-1.29,1.29-2.19,3.89-2.67,5.02-.81,8.87-2.1,11.54-3.89,2.67-1.78,5.47-3.97,8.38-6.56,1.46-1.46,2.67-2.19,3.64-2.19,1.46,0,2.19.97,2.19,2.92v10.93c0,1.14.49,1.99,1.46,2.55.97.57,2.02.28,3.16-.85,6.64-6.32,12.43-10.61,17.37-12.88,4.94-2.27,9.92-3.4,14.94-3.4,4.7,0,8.87,1.26,12.51,3.77,3.64,2.51,6.36,6.28,8.14,11.3.49,1.3,1.34,2.07,2.55,2.31,1.21.24,2.39-.2,3.52-1.34,6.64-6.15,12.39-10.36,17.25-12.63,4.86-2.27,9.8-3.4,14.82-3.4,6.8,0,12.35,2.55,16.64,7.65,4.29,5.1,6.44,12.6,6.44,22.47v78.96c0,3.4.52,5.79,1.58,7.17,1.05,1.38,3.28,2.31,6.68,2.79l5.34.73c1.78.33,2.67,1.3,2.67,2.92,0,1.78-.97,2.67-2.92,2.67h-41.55c-2.27,0-3.4-.89-3.4-2.67,0-1.62.89-2.59,2.67-2.92l3.4-.49c3.72-.49,6.15-1.46,7.29-2.92,1.13-1.46,1.7-3.89,1.7-7.29v-76.29c0-7.93-1.42-13.52-4.25-16.76-2.84-3.24-6.68-4.86-11.54-4.86s-9.27,1.5-13.24,4.49c-3.97,3-7.17,6.97-9.6,11.91-2.43,4.94-3.64,10.41-3.64,16.4v65.11c0,3.4.57,5.79,1.7,7.17,1.13,1.38,3.48,2.31,7.05,2.79l5.35.73c1.78.33,2.67,1.3,2.67,2.92,0,1.78-.97,2.67-2.92,2.67h-41.3c-2.27,0-3.4-.89-3.4-2.67,0-1.62.89-2.59,2.67-2.92l3.4-.49c3.4-.49,5.63-1.46,6.68-2.92,1.05-1.46,1.58-3.89,1.58-7.29v-76.29c0-7.93-1.42-13.52-4.25-16.76-2.84-3.24-6.68-4.86-11.54-4.86s-9.27,1.5-13.24,4.49c-3.97,3-7.17,6.97-9.6,11.91-2.43,4.94-3.64,10.41-3.64,16.4v65.11c0,3.4.52,5.83,1.58,7.29,1.05,1.46,3.28,2.35,6.68,2.67l6.56.73c1.78.33,2.67,1.21,2.67,2.67,0,1.94-1.21,2.92-3.64,2.92h-41.06Z" style="fill: #fff;"/>
  <path d="M729.72,201.18c-6.8,0-12.39-2.15-16.76-6.44-4.37-4.29-6.56-10-6.56-17.13s2.19-13.56,6.56-19.8c4.37-6.23,10.36-11.86,17.98-16.89,7.61-5.02,16.28-9.07,26-12.15,2.1-.64,3.16-2.02,3.16-4.13v-22.11c0-7.77-1.21-13.32-3.64-16.64-2.43-3.32-5.75-4.98-9.96-4.98s-7.74,1.82-11.05,5.47c-3.32,3.64-5.71,9.76-7.17,18.34-.81,5.19-2.55,8.95-5.22,11.3-2.67,2.35-5.39,3.52-8.14,3.52-4.54,0-6.8-2.27-6.8-6.8s1.34-9.35,4.01-13.97c2.67-4.62,6.2-8.83,10.57-12.63,4.37-3.8,9.15-6.84,14.33-9.11,5.18-2.27,10.36-3.4,15.55-3.4,16.04,0,24.05,9.32,24.05,27.94v74.35c0,6.8,1.7,10.2,5.1,10.2,2.1,0,4.05-1.42,5.83-4.25,1.78-2.83,2.67-7.65,2.67-14.46,0-2.59,1.05-3.89,3.16-3.89,1.94,0,2.92,1.38,2.92,4.13,0,11.83-2.07,20.37-6.2,25.63-4.13,5.27-8.79,7.9-13.97,7.9-3.89,0-6.97-1.58-9.23-4.74-2.27-3.16-3.81-6.92-4.62-11.3-.16-1.62-.85-2.47-2.07-2.55-1.21-.08-2.39.69-3.52,2.31-3.89,5.34-7.86,9.4-11.91,12.15-4.05,2.75-9.07,4.13-15.06,4.13ZM736.28,190c4.21,0,8.1-1.5,11.66-4.5,3.56-3,6.48-7,8.75-12.03,2.27-5.02,3.4-10.69,3.4-17.01v-17.74c0-3.08-1.7-3.97-5.1-2.67-9.88,3.57-17.54,8.47-22.96,14.7-5.43,6.24-8.14,13.73-8.14,22.47,0,11.18,4.13,16.76,12.39,16.76Z" style="fill: #fff;"/>
</svg>